<?xml version="1.0" standalone="no"?>
<!DOCTYPE svg PUBLIC "-//W3C//DTD SVG 20010904//EN"
 "http://www.w3.org/TR/2001/REC-SVG-20010904/DTD/svg10.dtd">
<svg version="1.0" xmlns="http://www.w3.org/2000/svg"
 width="300.000000pt" height="150.000000pt" viewBox="0 0 300.000000 150.000000"
 preserveAspectRatio="xMidYMid meet">
<metadata>
Created by potrace 1.10, written by Peter Selinger 2001-2011
</metadata>
<g transform="translate(0.000000,150.000000) scale(0.100000,-0.100000)"
fill="#000000" stroke="none">
<path d="M229 1476 c-88 -31 -154 -93 -195 -180 l-24 -51 0 -495 0 -495 29
-60 c31 -67 101 -138 159 -162 51 -21 145 -34 132 -17 -6 6 -31 17 -57 23
-106 27 -185 96 -222 196 -22 57 -22 66 -19 534 l3 476 30 54 c36 66 91 114
164 143 l56 23 1200 2 1200 2 74 -24 c61 -20 83 -33 121 -73 45 -47 62 -80 90
-177 13 -45 10 -867 -3 -920 -30 -115 -122 -206 -240 -236 -74 -18 -78 -37 -7
-28 73 8 133 42 193 109 78 87 77 78 77 634 l0 491 -28 60 c-33 69 -92 127
-166 161 l-51 24 -1240 -1 c-988 0 -1247 -3 -1276 -13z"/>
<path d="M457 1202 c-15 -17 -17 -61 -17 -428 0 -354 2 -413 16 -432 14 -20
23 -22 107 -22 68 0 99 4 115 16 l22 15 0 418 c0 392 -1 419 -18 434 -28 26
-202 24 -225 -1z m213 -429 l0 -418 -97 2 -98 2 -3 415 -2 416 100 0 100 0 0
-417z"/>
<path d="M757 1202 c-15 -17 -17 -61 -17 -428 0 -354 2 -413 16 -432 14 -20
23 -22 109 -22 86 0 95 2 109 22 9 12 16 36 17 53 l1 30 10 -35 c16 -59 33
-70 103 -70 73 0 82 7 100 82 l13 53 1 -51 c1 -73 17 -84 118 -84 65 0 83 3
96 18 15 17 17 61 17 434 0 389 -1 416 -18 431 -15 14 -42 17 -154 17 -162 0
-163 -1 -173 -107 -4 -40 -11 -73 -14 -73 -4 0 -12 32 -19 72 -19 107 -21 108
-172 108 -110 0 -129 -2 -143 -18z m278 -44 c3 -18 19 -107 34 -198 27 -158
28 -162 34 -110 4 30 14 119 23 198 l17 142 139 0 138 0 0 -417 0 -418 -85 0
-85 0 -1 230 -1 230 -29 -165 c-15 -91 -34 -194 -41 -228 l-13 -64 -62 -1 -63
-2 -9 50 c-8 40 -46 265 -64 385 -3 14 -5 -78 -6 -205 l-1 -230 -95 0 -95 0 0
418 0 417 130 0 129 0 6 -32z"/>
<path d="M1507 1203 c-16 -18 -17 -54 -17 -426 0 -394 1 -408 20 -427 18 -18
33 -20 148 -20 220 0 314 28 364 107 l23 38 3 -60 c4 -85 16 -95 115 -95 69 0
84 3 104 21 22 22 23 22 84 4 102 -28 178 -5 214 65 23 45 22 538 -1 587 -36
75 -130 112 -207 80 l-37 -16 0 57 c0 36 -6 66 -16 80 -14 20 -23 22 -118 22
-121 0 -133 -7 -138 -84 l-3 -49 -25 39 c-16 25 -43 48 -75 64 -47 23 -61 25
-235 28 -172 4 -186 2 -203 -15z m427 -38 c22 -11 49 -33 60 -48 20 -27 21
-43 24 -325 3 -344 2 -348 -84 -392 -46 -24 -59 -25 -231 -28 l-183 -3 0 411
0 412 188 -4 c163 -3 192 -6 226 -23z m354 -69 l-3 -94 25 18 c71 50 160 48
211 -6 l24 -26 3 -279 3 -280 -30 -29 c-26 -27 -36 -30 -89 -30 -33 0 -79 7
-102 15 -57 20 -69 19 -75 -7 -6 -22 -11 -23 -90 -23 l-85 0 0 418 0 417 106
0 106 0 -4 -94z"/>
<path d="M1720 785 l0 -275 24 0 c58 0 56 -10 56 271 0 245 -1 259 -19 269
-11 5 -29 10 -40 10 -21 0 -21 -4 -21 -275z m50 -5 c0 -153 -4 -240 -10 -240
-6 0 -10 87 -10 240 0 153 4 240 10 240 6 0 10 -87 10 -240z"/>
<path d="M2305 948 c-3 -7 -4 -117 -3 -243 3 -197 5 -230 18 -230 13 0 15 33
15 239 0 183 -3 240 -12 243 -7 3 -15 -1 -18 -9z"/>
</g>
</svg>
