<?xml version="1.0" standalone="no"?>
<!DOCTYPE svg PUBLIC "-//W3C//DTD SVG 20010904//EN"
 "http://www.w3.org/TR/2001/REC-SVG-20010904/DTD/svg10.dtd">
<svg version="1.0" xmlns="http://www.w3.org/2000/svg"
 width="300.000000pt" height="70.000000pt" viewBox="0 0 300.000000 70.000000"
 preserveAspectRatio="xMidYMid meet">
<metadata>
Created by potrace 1.10, written by Peter Selinger 2001-2011
</metadata>
<g transform="translate(0.000000,70.000000) scale(0.100000,-0.100000)"
fill="#000000" stroke="none">
<path d="M243 672 c-146 -52 -232 -172 -233 -324 0 -130 70 -244 187 -303 52
-27 67 -30 153 -30 79 0 103 4 141 23 75 37 125 87 161 160 30 60 33 76 33
152 0 102 -27 171 -94 237 -91 90 -235 125 -348 85z m302 -76 c61 -47 92 -103
108 -196 7 -47 11 -89 7 -95 -4 -5 -11 -27 -14 -49 -7 -37 -21 -68 -41 -92 -5
-6 -17 -20 -26 -30 -16 -20 -78 -69 -88 -70 -25 -3 -91 -26 -96 -34 -4 -6 -11
-7 -17 -4 -20 13 -68 13 -61 0 3 -6 -2 -4 -13 5 -10 9 -36 19 -57 22 -34 5
-104 50 -135 87 -7 8 -27 42 -44 75 -27 52 -31 70 -31 135 0 64 5 85 31 136
52 102 141 163 257 174 70 7 162 -20 220 -64z"/>
<path d="M234 586 c-63 -29 -120 -95 -139 -160 -19 -63 -19 -90 1 -155 45
-153 227 -229 372 -155 95 49 142 130 142 244 -1 96 -63 190 -154 231 -60 27
-157 25 -222 -5z m77 -17 c-11 -12 -25 -34 -31 -50 -7 -16 -18 -29 -26 -29
-16 0 -84 -58 -84 -72 0 -12 -26 -38 -38 -38 -6 0 -12 -6 -15 -12 -4 -11 -3
19 2 68 1 7 21 35 46 62 46 51 100 86 116 76 5 -3 9 0 9 5 0 6 9 11 20 11 21
0 21 0 1 -21z m200 -76 l79 -77 -27 -28 -27 -28 -67 65 c-38 37 -76 65 -88 65
-18 0 -41 -26 -41 -45 0 -4 30 -38 67 -76 l67 -69 -28 -29 -27 -28 -52 54
c-61 65 -95 85 -120 72 -31 -18 -18 -50 48 -118 l65 -67 -28 -27 -27 -26 -99
95 -98 96 23 24 c15 16 26 21 33 14 17 -17 26 -11 26 19 0 37 53 85 87 78 20
-4 23 0 23 24 0 15 12 41 26 58 21 25 33 31 66 31 37 0 47 -7 119 -77z m-48
-103 c36 -33 67 -60 70 -60 3 0 13 7 21 16 15 14 16 12 17 -18 2 -33 2 -32 9
7 l7 40 2 -36 c1 -38 -21 -103 -39 -114 -6 -4 -7 -12 -4 -18 4 -7 4 -9 0 -6
-10 9 -54 -33 -48 -45 3 -5 0 -6 -5 -3 -6 4 -21 -2 -34 -14 -12 -11 -29 -17
-36 -15 -7 3 -13 1 -13 -4 0 -6 -20 -10 -44 -10 l-44 0 29 31 c16 17 29 38 29
46 0 8 -27 43 -60 77 -33 35 -60 66 -60 69 0 16 18 3 80 -53 36 -33 72 -60 81
-60 17 0 50 33 68 68 11 21 7 28 -48 86 -34 34 -61 66 -61 69 0 18 25 2 83
-53z m-279 -186 c85 -84 73 -98 -14 -14 -23 22 -54 70 -45 70 2 0 29 -25 59
-56z"/>
<path d="M2360 565 c-25 -30 14 -74 53 -59 41 15 26 74 -18 74 -12 0 -28 -7
-35 -15z"/>
<path d="M2670 565 c-25 -30 14 -74 53 -59 41 15 26 74 -18 74 -12 0 -28 -7
-35 -15z"/>
<path d="M1533 533 c-18 -3 -23 -11 -23 -34 0 -19 -5 -29 -15 -29 -10 0 -15
-10 -15 -30 0 -19 5 -30 14 -30 10 0 15 -20 18 -81 3 -71 6 -83 27 -100 17
-14 36 -19 65 -17 39 3 41 5 44 37 3 28 1 33 -14 27 -30 -11 -44 13 -44 75 0
59 0 59 30 59 27 0 30 3 30 30 0 27 -3 30 -30 30 -28 0 -30 3 -30 35 0 37 -4
38 -57 28z m27 -45 c0 -6 7 -20 17 -30 15 -17 15 -19 0 -36 -25 -28 -23 -122
4 -156 16 -21 17 -26 5 -26 -32 0 -46 30 -46 96 0 36 -5 75 -11 86 -8 14 -8
23 0 31 6 6 11 19 11 29 0 10 5 18 10 18 6 0 10 -5 10 -12z"/>
<path d="M2523 533 c-18 -3 -23 -11 -23 -34 0 -22 -5 -29 -20 -29 -16 0 -20
-7 -20 -30 0 -23 4 -30 20 -30 18 0 20 -7 20 -78 0 -69 3 -81 23 -100 16 -15
36 -22 65 -22 41 0 42 1 42 34 0 29 -3 33 -20 29 -25 -7 -40 29 -40 93 0 42 1
44 30 44 27 0 30 3 30 30 0 27 -3 30 -31 30 -31 0 -31 1 -26 35 6 37 4 38 -50
28z m27 -51 c0 -10 5 -23 12 -30 9 -9 9 -15 0 -24 -7 -7 -12 -40 -12 -78 0
-53 4 -71 20 -88 20 -21 20 -22 2 -22 -32 0 -43 25 -43 97 0 47 -5 73 -15 85
-14 15 -14 19 0 40 9 14 13 28 9 31 -3 4 1 7 10 7 10 0 17 -8 17 -18z"/>
<path d="M914 470 c-12 -5 -25 -13 -29 -19 -10 -17 -28 -13 -21 4 4 12 -3 15
-29 15 l-35 0 0 -130 0 -130 40 0 40 0 0 88 c0 98 7 115 41 110 23 -3 24 -6
27 -100 l3 -98 39 0 39 0 3 91 c2 75 6 94 21 103 12 8 22 8 35 0 14 -9 18 -28
20 -103 l3 -91 39 0 40 0 0 89 c0 48 -5 102 -11 120 -21 59 -102 77 -144 31
-17 -19 -18 -19 -34 0 -20 23 -58 32 -87 20z m-62 -137 c-2 -46 -8 -83 -13
-83 -5 0 -9 44 -9 97 0 82 2 95 13 83 10 -11 12 -38 9 -97z m141 90 c9 -11 14
-31 12 -53 -2 -19 -4 -54 -4 -77 -1 -24 -5 -43 -11 -43 -6 0 -10 31 -10 74 0
53 -4 77 -15 86 -8 7 -15 16 -15 21 0 15 26 10 43 -8z m145 5 c8 -8 11 -42 10
-97 l-1 -86 -6 77 c-5 54 -12 83 -26 97 -14 17 -15 21 -4 21 8 0 20 -5 27 -12z"/>
<path d="M1304 466 c-134 -60 -92 -256 55 -256 74 0 93 8 89 38 -3 25 -6 26
-56 23 -40 -2 -59 2 -73 15 -10 9 -19 21 -19 26 0 4 38 8 85 8 84 0 85 0 85
25 0 34 -23 86 -46 107 -27 24 -83 30 -120 14z m84 -71 c12 -25 11 -25 -38
-25 -34 0 -50 4 -50 13 0 42 70 51 88 12z m42 -16 c0 -16 -4 -29 -8 -29 -4 0
-8 15 -8 34 0 19 4 32 8 30 4 -3 8 -18 8 -35z m-154 15 c-4 -10 1 -25 9 -34
11 -12 13 -20 6 -25 -16 -9 -13 -46 6 -67 9 -10 12 -18 6 -18 -18 0 -44 37
-49 71 -5 33 9 89 22 89 3 0 3 -7 0 -16z"/>
<path d="M1722 469 c-39 -10 -42 -12 -36 -37 9 -35 12 -38 26 -24 24 24 108
10 108 -19 0 -3 -23 -9 -50 -11 -78 -8 -120 -57 -99 -118 6 -17 19 -35 29 -40
28 -15 86 -12 100 5 16 19 30 19 30 0 0 -10 11 -15 35 -15 l35 0 0 78 c0 134
-24 178 -101 187 -19 2 -53 -1 -77 -6z m132 -57 c3 -10 6 -48 8 -87 2 -54 0
-70 -11 -70 -10 0 -13 20 -15 80 -1 44 -5 86 -9 92 -6 9 -3 11 7 7 8 -3 17
-13 20 -22z m-129 -121 c0 -45 -1 -48 -16 -35 -17 15 -15 47 4 72 5 6 10 12
11 12 0 0 1 -22 1 -49z m95 26 c0 -29 -34 -62 -55 -53 -22 8 -29 34 -15 51 10
12 21 16 63 24 4 0 7 -10 7 -22z"/>
<path d="M2023 469 c-60 -18 -105 -100 -89 -164 4 -14 19 -39 35 -57 24 -27
36 -32 87 -35 70 -5 84 3 77 39 -5 24 -8 26 -38 21 -27 -4 -39 0 -60 21 -22
22 -26 33 -21 59 9 45 30 62 75 60 35 -2 39 1 44 25 3 15 4 28 3 29 -8 9 -87
10 -113 2z m-13 -61 c-27 -30 -27 -96 1 -132 16 -21 17 -26 5 -26 -25 0 -56
50 -56 90 0 40 31 90 56 90 11 0 10 -5 -6 -22z"/>
<path d="M2282 470 c-12 -5 -25 -18 -29 -27 -4 -10 -11 -21 -16 -24 -5 -3 -11
-43 -14 -88 -3 -44 -10 -81 -14 -81 -5 0 -9 43 -9 96 0 80 2 94 13 85 16 -13
27 -5 27 21 0 14 -8 18 -35 18 l-35 0 0 -130 0 -130 40 0 40 0 0 76 c0 91 10
114 50 114 28 0 30 2 30 40 0 42 -7 46 -48 30z"/>
<path d="M2876 470 c-85 -27 -122 -128 -73 -201 29 -43 60 -59 117 -59 57 0
69 8 63 42 -5 24 -8 26 -38 21 -27 -4 -39 0 -59 20 -51 51 -20 123 52 120 36
-2 40 1 45 25 3 15 4 28 3 29 -8 8 -86 10 -110 3z m-16 -62 c-27 -30 -27 -96
1 -132 16 -21 17 -26 5 -26 -25 0 -56 50 -56 90 0 40 31 90 56 90 11 0 10 -5
-6 -22z"/>
<path d="M2355 340 l0 -130 42 0 43 0 -2 130 -2 130 -41 0 -40 0 0 -130z m45
-35 l-5 -60 -5 80 c-3 44 -3 89 0 100 8 33 15 -54 10 -120z"/>
<path d="M2665 340 l0 -130 40 0 40 0 0 130 0 130 -40 0 -40 0 0 -130z m42
-42 c-2 -29 -3 -8 -3 47 0 55 1 79 3 53 2 -26 2 -71 0 -100z"/>
</g>
</svg>
