 <svg version="1.0" xmlns="http://www.w3.org/2000/svg"  width="900.000000pt" height="210.000000pt" viewBox="0 0 900.000000 210.000000"  preserveAspectRatio="xMidYMid meet">  <g transform="translate(0.000000,210.000000) scale(0.100000,-0.100000)" fill="#bfc7d5" stroke="none"> <path d="M883 1826 c-39 -6 -75 -14 -79 -18 -4 -5 -14 -8 -23 -8 -9 -1 -34 -9 -56 -20 -22 -11 -43 -19 -47 -20 -10 0 -109 -61 -124 -75 -6 -6 -30 -27 -53 -46 -109 -89 -217 -262 -252 -404 -21 -84 -23 -298 -4 -374 10 -37 21 -75 25 -86 62 -146 100 -205 195 -301 128 -130 260 -196 462 -230 99 -17 106 -17 215 1 62 10 124 25 138 32 14 7 30 13 36 13 12 0 136 60 144 69 3 4 23 18 45 32 101 66 215 210 268 339 52 125 52 128 52 316 0 120 -4 186 -11 195 -7 8 -15 30 -19 49 -4 19 -11 40 -15 45 -4 6 -11 21 -15 35 -22 72 -161 244 -256 315 -40 30 -121 74 -174 95 -33 12 -69 26 -80 31 -33 13 -172 29 -238 28 -34 -1 -94 -7 -134 -13z m400 -145 c21 -11 53 -31 71 -45 55 -41 385 -368 391 -386 3 -11 -20 -41 -72 -93 -42 -42 -81 -77 -87 -77 -5 0 -86 76 -180 168 -180 178 -224 212 -274 212 -42 0 -90 -42 -98 -86 -15 -78 -5 -93 187 -286 98 -99 179 -185 179 -191 0 -17 -142 -157 -159 -157 -8 0 -94 79 -191 175 -97 96 -189 179 -204 185 -54 20 -95 13 -132 -24 -39 -39 -45 -86 -18 -139 10 -18 89 -104 178 -193 89 -88 167 -168 175 -178 13 -15 7 -25 -65 -97 -43 -43 -83 -79 -87 -79 -10 0 -559 538 -566 553 -5 12 120 137 137 137 8 0 27 -9 44 -21 16 -12 32 -19 35 -15 3 3 7 35 9 71 3 56 9 74 40 120 60 91 143 138 234 133 l55 -3 6 65 c6 71 33 141 70 180 40 43 98 82 132 91 48 12 148 2 190 -20z"/> <path d="M7093 1708 c-65 -72 -54 -157 27 -198 49 -25 61 -25 109 -1 67 34 91 91 64 148 -27 59 -49 72 -119 73 -50 0 -64 -4 -81 -22z"/> <path d="M8011 1693 c-53 -64 -36 -145 39 -183 49 -25 61 -25 109 -1 67 34 91 91 64 148 -27 59 -49 72 -120 73 -59 0 -63 -1 -92 -37z"/> <path d="M4640 1595 c-19 -7 -46 -14 -60 -14 -46 -2 -54 -15 -59 -98 l-6 -78 -43 -3 -43 -3 3 -87 3 -87 43 -3 c24 -2 42 -8 42 -15 -1 -182 10 -390 24 -431 38 -117 103 -156 256 -156 125 0 132 7 128 111 l-3 74 -50 6 c-67 8 -79 14 -99 52 -14 27 -17 57 -14 192 l3 160 77 3 c49 2 80 8 88 16 6 9 10 43 8 88 l-3 73 -85 5 -85 5 -3 103 -3 102 -42 -1 c-23 0 -58 -7 -77 -14z"/> <path d="M7595 1595 c-22 -7 -52 -14 -67 -14 -36 -1 -42 -14 -48 -101 l-5 -75 -50 -5 -50 -5 -3 -71 c-3 -85 9 -104 68 -104 l38 0 4 -217 c5 -239 11 -265 75 -324 52 -49 84 -59 191 -59 131 0 134 2 130 110 l-3 85 -42 -3 c-58 -5 -99 19 -106 60 -5 26 -11 285 -8 335 1 8 27 13 79 15 l77 3 5 79 c3 43 3 82 0 87 -3 4 -39 9 -80 11 l-75 3 -5 100 -5 100 -40 2 c-22 1 -58 -5 -80 -12z"/> <path d="M2739 1404 c-25 -8 -64 -30 -87 -50 -44 -37 -62 -37 -62 0 0 39 -21 47 -115 44 l-87 -3 1 -374 c1 -206 4 -378 7 -383 6 -10 195 -10 211 0 8 5 12 82 15 259 l3 252 34 35 c31 31 41 36 83 36 39 0 52 -5 71 -26 32 -36 36 -72 36 -320 1 -177 4 -224 15 -233 9 -8 48 -11 112 -9 l99 3 5 245 c5 255 7 267 53 318 27 29 115 32 139 5 40 -47 43 -63 48 -318 l5 -250 105 -3 c90 -2 107 0 117 15 10 12 13 75 13 235 0 313 -23 412 -114 484 -39 31 -104 54 -156 54 -72 0 -185 -51 -213 -97 -14 -22 -35 -15 -80 30 -66 64 -157 82 -258 51z"/> <path d="M3945 1405 c-72 -17 -112 -41 -171 -100 -55 -54 -76 -94 -100 -183 -26 -98 -13 -233 30 -318 36 -70 118 -135 213 -168 43 -15 74 -17 185 -13 74 2 155 11 183 19 48 15 50 17 53 54 2 22 -3 57 -10 79 -12 36 -16 40 -43 37 -17 -2 -82 -6 -146 -8 -104 -5 -121 -3 -157 15 -46 24 -94 77 -90 100 3 14 32 17 238 21 129 3 241 9 248 13 16 11 15 136 -2 207 -17 69 -36 104 -81 157 -75 88 -212 123 -350 88z m183 -191 c27 -29 33 -42 30 -72 l-3 -37 -130 0 c-126 0 -130 1 -133 22 -3 23 19 65 51 97 48 48 135 43 185 -10z"/> <path d="M5200 1404 c-84 -16 -141 -37 -151 -56 -5 -8 -4 -28 1 -44 5 -16 12 -41 15 -55 7 -36 28 -42 78 -22 24 9 81 18 135 20 91 4 92 4 122 -26 56 -56 37 -75 -85 -85 -122 -10 -207 -48 -270 -120 -105 -119 -73 -301 66 -371 38 -20 64 -25 123 -25 75 0 118 13 180 55 l28 19 27 -32 c26 -32 27 -32 119 -32 66 0 92 3 93 13 5 77 -4 476 -13 522 -25 141 -92 213 -223 241 -73 16 -159 16 -245 -2z m246 -440 c17 -68 -29 -152 -94 -171 -105 -30 -172 65 -104 146 23 28 39 36 92 46 78 14 98 10 106 -21z"/> <path d="M6100 1405 c-72 -16 -104 -31 -167 -78 -70 -52 -101 -99 -134 -202 -64 -202 40 -415 236 -484 83 -29 270 -30 334 -1 37 17 42 23 37 43 -4 12 -12 47 -18 77 -6 30 -14 58 -17 62 -3 4 -24 1 -46 -7 -113 -40 -245 16 -281 121 -28 81 -9 185 43 239 44 45 97 59 201 51 62 -5 83 -3 86 6 21 82 33 144 30 153 -6 14 -129 35 -197 34 -28 -1 -77 -7 -107 -14z"/> <path d="M6855 1406 c-46 -17 -94 -54 -110 -87 -22 -42 -32 -36 -42 24 l-8 52 -98 3 -97 3 2 -383 3 -383 115 0 115 0 5 230 c5 217 6 232 27 261 35 49 65 64 131 64 32 0 63 5 70 12 15 15 16 171 2 199 -12 22 -64 24 -115 5z"/> <path d="M8650 1405 c-72 -16 -104 -31 -166 -78 -65 -47 -100 -98 -130 -185 -72 -210 27 -426 230 -502 50 -19 73 -22 184 -18 98 3 135 8 160 21 21 12 32 24 28 32 -3 8 -11 42 -17 77 -7 35 -15 66 -18 70 -4 4 -24 1 -46 -7 -113 -40 -245 16 -281 121 -42 120 15 257 118 285 23 6 80 9 127 7 l86 -3 8 50 c5 28 10 66 11 84 1 35 1 35 -59 48 -74 15 -162 14 -235 -2z"/> <path d="M7067 1394 c-9 -9 -9 -726 -1 -748 5 -13 24 -16 110 -16 92 0 104 2 114 20 7 12 9 143 8 382 l-3 363 -111 3 c-60 1 -113 -1 -117 -4z"/> <path d="M7995 1390 c-8 -12 -7 -738 0 -751 4 -5 53 -9 110 -9 93 0 105 2 115 20 7 12 9 143 8 382 l-3 363 -112 3 c-68 2 -114 -1 -118 -8z"/> </g> </svg> 