<?xml version="1.0" standalone="no"?>
<!DOCTYPE svg PUBLIC "-//W3C//DTD SVG 20010904//EN"
 "http://www.w3.org/TR/2001/REC-SVG-20010904/DTD/svg10.dtd">
<svg version="1.0" xmlns="http://www.w3.org/2000/svg"
 width="300.000000pt" height="70.000000pt" viewBox="0 0 300.000000 70.000000"
 preserveAspectRatio="xMidYMid meet">
<metadata>
Created by potrace 1.10, written by Peter Selinger 2001-2011
</metadata>
<g transform="translate(0.000000,70.000000) scale(0.050000,-0.050000)"
fill="#000000" stroke="none">
<path d="M547 1359 c-493 -95 -696 -748 -350 -1124 262 -283 776 -275 1014 15
418 510 -15 1234 -664 1109z m324 -72 c549 -185 599 -910 81 -1155 -313 -148
-656 -19 -822 307 -237 468 243 1016 741 848z"/>
<path d="M595 1219 c-436 -105 -578 -614 -254 -907 345 -312 879 -76 879 388
0 335 -313 594 -625 519z m428 -233 l158 -154 -57 -58 -58 -57 -117 122 c-129
136 -200 168 -242 110 -41 -55 -37 -62 107 -211 l133 -138 -57 -60 -57 -60
-99 111 c-115 129 -189 174 -240 146 -64 -36 -38 -102 96 -237 l131 -132 -56
-53 -56 -54 -196 192 -196 191 45 48 c31 33 52 42 66 28 35 -35 52 -22 52 38
0 70 98 162 172 162 37 0 48 11 48 48 0 87 92 172 184 172 73 0 95 -14 239
-154z"/>
<path d="M4721 1131 c-32 -38 -9 -106 39 -121 51 -16 120 22 120 67 0 76 -110
114 -159 54z"/>
<path d="M5341 1131 c-32 -38 -9 -106 39 -121 51 -16 120 22 120 67 0 76 -110
114 -159 54z"/>
<path d="M3095 1071 c-65 -15 -75 -26 -75 -75 0 -36 -10 -56 -30 -56 -20 0
-30 -20 -30 -60 0 -38 10 -60 28 -60 21 0 30 -40 35 -162 9 -195 48 -244 185
-234 91 7 144 116 57 116 -63 0 -85 43 -85 164 0 116 0 116 60 116 53 0 60 7
60 60 0 53 -7 60 -59 60 -53 0 -59 7 -65 75 l-6 75 -75 -19z"/>
<path d="M5035 1066 c-23 -6 -35 -29 -35 -67 0 -46 -9 -59 -40 -59 -31 0 -40
-13 -40 -60 0 -47 9 -60 40 -60 37 0 40 -13 40 -160 0 -197 30 -240 170 -240
89 0 90 0 90 69 0 57 -6 67 -33 57 -51 -20 -87 50 -87 168 0 104 1 106 60 106
53 0 60 7 60 60 0 54 -7 60 -61 60 -59 0 -60 2 -48 70 14 74 -8 84 -116 56z"/>
<path d="M1840 946 c-16 -6 -46 -25 -65 -42 -32 -27 -35 -27 -35 3 0 25 -19
33 -75 33 l-75 0 6 -260 6 -260 78 0 79 0 5 195 6 195 60 0 60 0 6 -195 5
-195 79 0 78 0 6 183 c10 320 142 320 152 0 l6 -183 79 0 79 0 0 181 c0 316
-138 455 -304 305 -31 -27 -39 -26 -88 12 -53 42 -91 49 -148 28z"/>
<path d="M2630 947 c-179 -47 -240 -335 -100 -467 99 -93 378 -82 366 15 -6
51 -11 53 -110 48 -112 -6 -186 21 -186 68 0 23 34 29 170 29 189 0 189 0 150
141 -35 127 -162 199 -290 166z m146 -162 c6 -41 -1 -45 -85 -45 -61 0 -91 8
-91 26 0 83 165 101 176 19z"/>
<path d="M3444 940 c-142 -33 -105 -125 44 -108 81 10 109 6 130 -20 31 -36
22 -42 -105 -59 -237 -34 -246 -333 -11 -333 36 0 81 15 101 33 33 30 37 30
49 0 8 -22 36 -33 79 -33 l67 0 -12 205 c-17 308 -91 375 -342 315z m196 -307
c0 -66 -72 -128 -116 -100 -50 31 -41 92 16 121 73 37 100 32 100 -21z"/>
<path d="M4047 939 c-186 -57 -242 -323 -96 -460 54 -51 274 -82 312 -44 47
47 -3 123 -73 111 -54 -9 -77 -1 -119 41 -101 101 -46 233 98 233 81 0 146 72
104 114 -20 20 -166 23 -226 5z"/>
<path d="M4529 911 c-45 -45 -49 -46 -49 -10 0 31 -14 39 -70 39 l-70 0 0
-260 0 -260 80 0 80 0 0 166 c0 182 16 214 104 214 52 0 56 6 56 80 0 97 -52
109 -131 31z"/>
<path d="M5747 939 c-186 -57 -242 -323 -96 -460 54 -51 274 -82 312 -44 47
47 -3 123 -73 111 -54 -9 -77 -1 -119 41 -101 101 -46 233 98 233 81 0 146 72
104 114 -20 20 -166 23 -226 5z"/>
<path d="M4707 680 l-3 -260 86 0 87 0 -4 260 -3 260 -80 0 -80 0 -3 -260z"/>
<path d="M5333 685 l3 -255 77 -6 77 -6 0 261 0 261 -80 0 -80 0 3 -255z"/>
</g>
</svg>
