<?xml version="1.0" standalone="no"?>
<!DOCTYPE svg PUBLIC "-//W3C//DTD SVG 20010904//EN"
 "http://www.w3.org/TR/2001/REC-SVG-20010904/DTD/svg10.dtd">
<svg version="1.0" xmlns="http://www.w3.org/2000/svg"
 width="300.000000pt" height="96.000000pt" viewBox="0 0 300.000000 96.000000"
 preserveAspectRatio="xMidYMid meet">
<metadata>
Created by potrace 1.10, written by Peter Selinger 2001-2011
</metadata>
<g transform="translate(0.000000,96.000000) scale(0.100000,-0.100000)"
fill="#bfc7d5" stroke="none">
<path d="M1346 885 c-10 -24 -22 -35 -35 -35 -18 0 -21 -6 -21 -45 0 -25 5
-45 10 -45 6 0 10 -6 10 -13 0 -10 -14 -7 -50 11 -64 32 -107 25 -157 -26 -32
-32 -35 -33 -28 -12 4 14 10 46 12 71 8 83 -47 118 -182 119 -33 0 -77 -5 -97
-11 l-38 -10 0 -174 c0 -95 3 -180 6 -189 5 -12 20 -16 59 -16 51 0 53 1 59
31 3 17 6 44 6 60 0 22 5 29 19 29 19 0 31 -25 31 -67 0 -37 26 -53 85 -53 34
0 55 5 58 13 3 9 7 9 20 -2 23 -18 21 -26 -6 -38 -17 -8 -30 -7 -51 4 -20 10
-43 13 -75 9 -25 -4 -72 -6 -104 -6 -94 2 -97 0 -97 -81 0 -44 -4 -68 -10 -64
-6 3 -7 17 -4 30 5 20 1 25 -19 30 -19 5 -23 11 -19 27 4 17 1 19 -29 17 -21
-2 -45 4 -59 14 -33 23 -54 22 -47 -2 4 -16 -2 -19 -49 -23 -60 -5 -89 -25
-111 -75 -7 -18 -15 -33 -18 -33 -3 0 -5 32 -5 70 l0 70 40 0 c36 0 40 2 45
33 4 18 5 53 3 77 l-3 45 -50 -1 c-27 0 -110 -4 -182 -8 l-133 -9 0 -74 c0
-101 7 -111 68 -105 l49 4 6 -114 c4 -64 10 -129 13 -147 l6 -31 74 0 73 0 7
35 6 34 27 -51 c17 -35 38 -58 61 -70 42 -22 140 -25 140 -5 0 24 37 50 62 44
17 -5 28 1 45 21 18 21 22 23 23 10 0 -15 9 -18 53 -18 77 0 81 6 87 107 4 70
8 88 21 91 14 2 17 -10 21 -80 2 -46 8 -89 12 -96 4 -7 32 -12 70 -12 75 0 76
1 76 123 0 69 2 78 18 75 14 -3 18 -18 22 -96 4 -60 10 -96 18 -101 7 -4 35
-6 62 -3 44 4 50 2 77 -27 35 -40 89 -49 151 -28 23 8 45 11 48 6 3 -5 32 -9
64 -9 l60 0 6 41 c5 32 9 38 16 25 24 -42 122 -60 177 -32 27 14 51 53 51 83
0 11 10 6 35 -16 40 -34 47 -36 75 -19 15 10 22 9 38 -5 33 -30 89 -20 140 26
21 20 22 20 22 1 1 -37 39 -104 72 -124 67 -41 176 -37 228 7 19 15 34 42 41
69 l11 43 31 -16 c23 -11 48 -14 96 -10 117 8 151 40 151 141 0 44 -5 60 -25
84 -23 27 -23 31 -7 38 9 4 26 8 36 8 14 1 19 9 20 33 1 17 -2 29 -6 27 -3 -2
-8 1 -10 8 -3 9 -6 9 -12 0 -4 -7 -2 -12 3 -12 6 0 11 -5 11 -11 0 -5 -6 -7
-12 -3 -7 4 -4 -3 7 -17 11 -13 13 -18 4 -12 -11 9 -19 9 -26 2 -8 -8 -13 -7
-18 2 -5 8 -4 10 4 5 8 -5 11 2 9 23 -1 16 -6 27 -10 25 -5 -3 -6 -10 -2 -15
3 -5 -11 2 -32 16 -29 20 -49 25 -96 25 -108 0 -166 -50 -155 -132 l5 -38 -29
24 c-32 27 -100 42 -148 31 -17 -3 -46 -17 -66 -30 l-35 -24 0 24 c0 44 -18
78 -40 72 -35 -9 -42 17 -44 154 -1 126 -2 131 -26 151 -19 15 -33 18 -65 14
-22 -4 -68 -7 -103 -7 -54 -1 -66 2 -78 20 -36 51 -130 67 -188 32 -21 -12
-42 -17 -63 -14 -28 5 -33 9 -33 34 0 27 -3 29 -36 29 -31 0 -37 -4 -51 -37
l-17 -38 -5 30 c-5 24 -12 31 -34 33 -23 3 -27 8 -27 33 0 27 -2 29 -40 29
-36 0 -41 -3 -54 -35z m74 -15 c0 -25 4 -30 25 -30 21 0 25 -5 25 -30 0 -27
-3 -30 -30 -30 -29 0 -30 -1 -30 -50 0 -38 4 -50 15 -50 8 0 15 7 15 15 0 8 9
15 20 15 15 0 20 -7 20 -29 0 -57 -73 -80 -125 -39 -26 20 -27 24 -21 85 5 53
4 63 -9 63 -25 0 -18 39 9 50 13 4 26 20 30 34 5 19 13 26 31 26 21 0 25 -5
25 -30z m-376 -9 c43 -41 28 -130 -23 -131 -10 -1 -6 -6 10 -15 32 -17 35 -25
44 -98 l7 -57 -55 0 -55 0 -7 60 -7 60 -45 0 -46 0 6 -60 7 -60 -45 0 -45 0 0
150 c0 83 0 153 -1 158 -1 14 47 21 138 19 82 -2 94 -5 117 -26z m546 -41 c0
-27 3 -30 30 -30 27 0 30 -3 30 -30 0 -27 -3 -30 -30 -30 -27 0 -30 -3 -30
-34 0 -19 -3 -41 -6 -50 -4 -12 0 -16 15 -16 12 0 21 6 21 15 0 8 9 15 20 15
16 0 20 -7 20 -30 0 -40 -37 -65 -86 -57 -57 10 -66 22 -63 96 2 43 -2 66 -9
69 -7 2 -12 15 -12 28 0 17 6 24 19 24 11 0 23 12 31 30 8 18 20 30 31 30 14
0 19 -7 19 -30z m258 -16 c26 -18 52 -65 52 -94 0 -18 -6 -20 -75 -20 -68 0
-75 -2 -75 -20 0 -16 7 -20 30 -20 17 0 30 5 30 10 0 6 18 10 40 10 46 0 51
-13 18 -47 -18 -19 -32 -23 -81 -23 -51 0 -62 4 -88 29 -24 24 -29 38 -29 76
0 40 5 52 34 81 28 28 41 34 78 34 24 0 54 -7 66 -16z m-572 -75 c60 -57 49
-155 -20 -184 -58 -25 -94 -19 -132 19 -29 29 -34 41 -34 79 0 48 26 91 64
108 33 14 96 3 122 -22z m845 21 c17 -10 19 -22 19 -110 l0 -100 -34 0 c-41 0
-46 11 -46 91 0 56 -1 59 -25 59 -24 0 -25 -3 -25 -54 0 -75 -6 -86 -46 -86
l-34 0 0 100 0 100 29 0 c17 0 33 -5 36 -10 4 -6 16 -5 33 5 32 17 66 19 93 5z
m-71 -149 c0 -22 -4 -43 -10 -46 -6 -4 -10 12 -10 39 0 25 5 46 10 46 6 0 10
-18 10 -39z m-1570 -31 l0 -50 -46 0 -47 0 7 -112 c4 -62 10 -137 13 -166 l6
-52 -65 0 -66 0 -6 118 c-4 64 -9 130 -13 146 -5 28 -6 28 -59 24 l-54 -5 0
43 c0 23 -3 49 -6 57 -4 12 13 16 98 22 92 7 229 20 236 24 1 0 2 -21 2 -49z
m1441 -80 c1 -8 6 -21 12 -28 7 -9 4 -18 -12 -33 -16 -15 -21 -28 -16 -48 3
-16 0 -34 -9 -46 -9 -11 -16 -28 -16 -37 0 -14 -8 -18 -34 -18 -19 0 -37 -6
-39 -12 -3 -7 -6 2 -6 20 -1 30 1 32 33 32 39 0 43 7 52 86 l7 54 -42 0 -41 0
0 44 c0 40 2 44 29 49 16 4 38 17 48 31 l18 24 7 -52 c4 -28 8 -58 9 -66z
m-331 35 c34 0 47 6 66 29 21 24 27 26 42 15 9 -7 18 -14 20 -15 1 -1 -6 -22
-17 -48 -17 -38 -25 -46 -47 -46 -17 0 -28 -6 -31 -19 -5 -19 -6 -19 -46 0
-77 35 -187 20 -230 -31 l-25 -29 -6 33 c-4 18 -17 43 -30 55 l-23 22 33 33
c19 19 34 41 34 50 0 19 3 19 52 6 27 -8 45 -7 69 3 31 12 34 12 65 -22 27
-30 39 -36 74 -36z m200 -35 l0 -40 41 0 40 0 -3 -37 c-3 -37 -4 -38 -45 -41
l-43 -3 0 -70 c0 -62 2 -69 20 -69 13 0 20 7 20 20 0 16 7 20 30 20 28 0 30
-3 30 -35 0 -53 -28 -75 -94 -75 -30 0 -62 3 -71 6 -31 12 -43 55 -37 137 4
67 2 77 -12 77 -11 0 -16 9 -16 30 0 23 4 30 20 30 14 0 27 14 42 45 18 37 27
45 50 45 26 0 28 -3 28 -40z m250 14 c0 -12 4 -12 25 2 23 15 25 15 19 0 -5
-13 1 -16 30 -16 29 0 38 -5 46 -24 5 -14 19 -26 32 -28 18 -2 25 -12 32 -45
5 -23 5 -58 1 -79 -13 -74 -124 -146 -166 -108 -13 11 -27 14 -49 9 -38 -8
-73 12 -96 56 -14 28 -14 34 1 65 9 19 13 44 9 58 -5 20 0 27 27 42 29 15 31
18 16 29 -26 19 -20 28 13 23 25 -4 31 -1 36 19 6 24 24 22 24 -3z m709 -9
c26 -13 41 -33 41 -56 0 -13 -74 -11 -87 2 -17 17 -77 7 -81 -13 -3 -15 4 -18
45 -18 105 0 153 -32 153 -100 0 -67 -48 -100 -150 -104 -54 -1 -97 23 -112
63 l-8 23 95 -7 c80 -6 95 -5 95 8 0 15 -47 27 -108 27 -67 0 -113 81 -82 140
25 47 139 67 199 35z m-1698 -28 l34 -23 27 20 c19 13 44 20 79 20 45 1 54 -3
80 -32 28 -32 29 -34 29 -147 l0 -115 -55 0 -55 0 0 100 0 100 -40 0 -40 0 0
-95 0 -95 -60 0 -60 0 0 96 0 95 -37 -3 -38 -3 -3 -91 -3 -92 -39 -6 c-69 -11
-70 -10 -70 140 l0 134 44 0 c24 0 46 -5 48 -11 2 -7 18 -4 43 10 51 27 74 26
116 -2z m-408 -28 c12 -17 19 -19 35 -10 29 16 34 14 22 -9 -9 -17 -8 -20 9
-20 11 0 23 -4 26 -10 3 -5 -1 -10 -10 -10 -11 0 -5 -11 20 -34 29 -28 35 -38
27 -52 -6 -10 -6 -27 -2 -40 6 -15 3 -30 -10 -51 -15 -25 -23 -29 -49 -25 -26
4 -33 0 -52 -32 -25 -42 -51 -46 -116 -16 -47 21 -83 70 -83 112 0 15 -4 30
-10 33 -15 9 -12 53 6 91 23 48 63 67 121 58 43 -6 45 -6 38 15 -8 27 9 27 28
0z m922 -13 c52 -22 62 -48 69 -173 l5 -111 -50 -4 c-34 -2 -53 1 -58 10 -6
10 -14 10 -44 -3 -112 -47 -201 20 -152 114 17 33 51 47 135 57 48 5 60 10 60
24 0 18 -26 30 -67 30 -16 0 -23 -6 -23 -20 0 -17 -7 -20 -48 -20 -27 0 -51 3
-55 6 -10 11 15 64 37 76 53 29 140 35 191 14z m895 -48 c49 -26 80 -74 80
-125 l0 -33 -62 0 c-35 0 -80 -3 -100 -6 -32 -6 -38 -11 -38 -30 0 -21 5 -24
40 -24 29 0 40 4 40 15 0 10 10 15 33 15 17 0 42 3 55 6 33 9 29 -28 -7 -68
-25 -28 -35 -32 -93 -36 -114 -7 -178 46 -178 150 0 24 8 59 18 78 21 40 90
80 137 80 17 0 51 -10 75 -22z"/>
<path d="M890 785 c0 -34 1 -35 40 -35 39 0 40 1 40 35 0 34 -1 35 -40 35 -39
0 -40 -1 -40 -35z"/>
<path d="M1760 750 c0 -16 7 -20 30 -20 23 0 30 4 30 20 0 16 -7 20 -30 20
-23 0 -30 -4 -30 -20z"/>
<path d="M1168 655 c-3 -46 3 -55 43 -55 16 0 19 7 19 50 0 49 -1 50 -29 50
-27 0 -29 -3 -33 -45z m42 -30 c0 -8 -4 -15 -10 -15 -5 0 -10 7 -10 15 0 8 5
15 10 15 6 0 10 -7 10 -15z"/>
<path d="M1453 253 c-17 -3 -23 -11 -23 -29 0 -23 3 -25 38 -22 32 3 37 7 40
31 3 28 -2 30 -55 20z"/>
<path d="M2387 323 c-33 -4 -38 -7 -35 -26 2 -17 11 -23 41 -25 35 -3 37 -2
37 27 0 17 -1 30 -2 29 -2 -1 -20 -3 -41 -5z"/>
</g>
</svg>
