<?xml version="1.0" standalone="no"?>
<!DOCTYPE svg PUBLIC "-//W3C//DTD SVG 20010904//EN"
 "http://www.w3.org/TR/2001/REC-SVG-20010904/DTD/svg10.dtd">
<svg version="1.0" xmlns="http://www.w3.org/2000/svg"
 width="300.000000pt" height="96.000000pt" viewBox="0 0 300.000000 96.000000"
 preserveAspectRatio="xMidYMid meet">
<metadata>
Created by potrace 1.10, written by Peter Selinger 2001-2011
</metadata>
<g transform="translate(0.000000,96.000000) scale(0.100000,-0.100000)"
fill="#000000" stroke="none">
<path d="M1346 885 c-10 -24 -22 -35 -35 -35 -18 0 -21 -6 -21 -45 0 -25 5
-45 10 -45 6 0 10 -9 10 -20 0 -18 -2 -17 -26 5 -53 49 -142 41 -189 -18 -28
-36 -31 -30 -11 28 36 103 -27 155 -184 154 -36 0 -81 -6 -100 -12 -33 -12
-35 -14 -34 -57 0 -25 2 -109 3 -187 l3 -143 58 0 c56 0 58 1 64 31 3 17 6 44
6 60 0 22 5 29 20 29 14 0 21 -9 25 -37 11 -65 15 -70 47 -77 58 -12 98 -7 98
11 0 14 4 12 25 -7 l25 -24 -27 -12 c-22 -9 -34 -8 -57 4 -21 10 -44 12 -80 8
-28 -4 -75 -7 -104 -6 -89 2 -92 -1 -92 -81 0 -44 -4 -68 -10 -64 -6 3 -7 17
-4 30 5 20 1 25 -19 30 -19 5 -23 11 -19 27 4 18 1 20 -32 16 -20 -2 -36 -1
-36 2 0 8 -46 30 -62 30 -6 0 -8 -9 -5 -20 5 -18 0 -20 -43 -20 -56 0 -95 -26
-116 -77 -8 -18 -16 -33 -19 -33 -3 0 -5 32 -5 70 l0 70 39 0 c32 0 40 4 45
23 9 36 7 125 -4 132 -6 4 -89 1 -185 -6 l-175 -13 0 -62 c0 -34 3 -75 6 -92
6 -30 7 -30 58 -25 l53 5 7 -118 c10 -184 5 -174 92 -174 l74 0 7 42 7 43 9
-35 c13 -49 45 -90 83 -106 44 -19 134 -19 134 -1 0 25 37 50 64 43 21 -5 28
-1 43 26 16 31 18 31 21 11 3 -21 9 -23 62 -23 74 0 80 9 80 119 0 74 2 81 20
81 18 0 20 -7 20 -64 0 -35 3 -78 6 -95 l7 -31 67 0 c81 0 80 -1 80 116 0 77
2 84 20 84 18 0 20 -7 21 -85 1 -47 2 -90 3 -95 2 -20 27 -27 76 -22 44 4 50
2 77 -27 35 -40 89 -49 151 -28 23 8 45 11 48 6 3 -5 32 -9 64 -9 l59 0 6 34
c4 19 4 45 1 58 -4 13 1 8 11 -12 22 -42 54 -60 111 -60 71 0 122 40 122 97 0
11 10 6 35 -16 40 -34 47 -36 75 -19 15 10 22 9 38 -5 32 -30 106 -15 142 28
11 13 15 9 31 -37 21 -62 53 -93 112 -109 50 -13 130 -6 163 16 35 22 57 62
58 101 1 19 4 34 9 34 4 0 7 -4 7 -9 0 -19 62 -34 123 -29 114 10 147 42 147
143 0 50 -4 60 -30 85 -29 27 -29 28 -8 34 18 4 20 8 10 18 -6 6 -12 20 -12
30 0 31 -58 58 -123 58 -109 0 -165 -50 -153 -136 l5 -42 -27 28 c-50 50 -165
51 -222 3 l-30 -25 0 25 c0 46 -18 79 -42 75 -15 -2 -26 6 -41 32 -12 22 -15
36 -8 38 7 2 11 40 11 103 0 94 -2 101 -26 126 -23 23 -31 25 -72 19 -26 -4
-72 -7 -102 -8 -49 0 -59 3 -86 30 -55 55 -140 60 -192 12 -12 -11 -23 -16
-27 -10 -3 6 -17 10 -31 10 -20 0 -24 5 -24 30 0 28 -3 30 -36 30 -31 0 -37
-4 -50 -36 -16 -38 -28 -38 -29 -1 0 16 -7 23 -27 25 -24 3 -28 8 -28 33 0 27
-2 29 -40 29 -36 0 -41 -3 -54 -35z m72 -15 c-4 -27 -2 -30 24 -30 25 0 28 -4
28 -31 0 -29 -2 -31 -30 -27 l-30 5 0 -54 c0 -40 4 -53 15 -53 8 0 15 7 15 15
0 8 9 15 20 15 15 0 20 -7 20 -29 0 -57 -73 -80 -125 -39 -26 20 -27 24 -21
85 5 53 4 63 -9 63 -9 0 -15 9 -15 24 0 19 4 23 19 19 15 -4 22 3 31 31 9 29
17 36 37 36 22 0 25 -3 21 -30z m-381 -6 c19 -14 29 -32 31 -53 4 -37 -21 -81
-46 -81 -12 -1 -10 -5 9 -15 28 -15 33 -28 44 -107 l7 -48 -55 0 -54 0 -7 60
-7 60 -46 0 -46 0 6 -60 5 -60 -44 0 -44 0 0 150 c0 83 -1 153 -2 157 -5 13
54 22 139 20 65 -2 87 -6 110 -23z m553 -44 c0 -27 3 -30 30 -30 27 0 30 -3
30 -30 0 -27 -3 -30 -30 -30 -27 0 -30 -3 -30 -34 0 -19 -3 -41 -6 -50 -4 -12
0 -16 15 -16 12 0 21 6 21 15 0 8 9 15 20 15 16 0 20 -7 20 -30 0 -40 -37 -65
-86 -57 -59 10 -67 22 -62 99 4 53 2 68 -8 68 -8 0 -14 10 -14 25 0 17 4 23
15 19 10 -4 20 6 32 30 22 46 53 50 53 6z m258 -16 c26 -18 52 -65 52 -94 0
-18 -6 -20 -78 -20 -71 0 -78 -2 -78 -20 0 -16 7 -20 33 -20 18 0 33 5 33 10
0 6 18 10 40 10 46 0 51 -13 18 -47 -18 -19 -32 -23 -81 -23 -51 0 -62 4 -88
29 -24 24 -29 38 -29 76 0 40 5 52 34 81 28 28 41 34 78 34 24 0 54 -7 66 -16z
m-572 -75 c60 -57 49 -155 -20 -184 -58 -25 -94 -19 -132 19 -28 28 -34 42
-34 76 0 52 13 76 53 101 40 25 99 20 133 -12z m845 21 c17 -10 19 -22 19
-111 l0 -100 -37 3 c-34 3 -37 6 -38 33 -4 117 -4 115 -30 115 -23 0 -25 -4
-26 -47 -1 -27 -2 -57 -3 -68 -1 -16 -9 -21 -38 -23 l-38 -3 0 100 0 101 29 0
c16 0 31 -5 33 -11 3 -8 13 -7 33 4 35 19 69 21 96 7z m-484 -56 c-3 -3 -12
-4 -19 -1 -8 3 -5 6 6 6 11 1 17 -2 13 -5z m413 -99 c0 -25 -4 -45 -10 -45 -5
0 -10 20 -10 45 0 25 5 45 10 45 6 0 10 -20 10 -45z m-1570 -25 l0 -50 -49 0
-50 0 5 -32 c4 -35 24 -269 24 -287 0 -7 -25 -11 -64 -11 l-63 0 -7 122 c-11
178 -8 171 -72 166 l-54 -5 0 43 c0 23 -2 49 -5 57 -5 11 24 16 157 26 90 7
165 15 167 17 9 9 11 2 11 -46z m1449 -69 c11 -7 11 -9 0 -13 -12 -4 -12 -7
-1 -21 11 -13 10 -19 -8 -37 -16 -16 -20 -29 -15 -48 3 -17 0 -35 -9 -47 -9
-11 -16 -28 -16 -37 0 -14 -8 -18 -34 -18 -24 0 -36 -5 -39 -18 -3 -9 -5 0 -6
21 -1 36 0 37 34 37 39 0 45 12 48 96 l2 49 -38 0 c-37 0 -37 0 -37 43 0 34 3
42 19 42 24 0 71 37 72 58 1 9 5 -9 8 -41 4 -32 12 -62 20 -66z m-407 51 c14
-12 41 -25 61 -29 31 -5 40 -1 66 25 26 26 34 29 54 19 l23 -10 -24 -46 c-16
-34 -30 -47 -50 -51 -20 -4 -26 -11 -25 -26 2 -21 2 -21 -44 3 -79 39 -191 27
-236 -27 l-25 -29 -6 33 c-4 18 -17 43 -30 55 l-23 22 33 33 c19 19 34 43 34
55 0 21 14 28 24 12 17 -28 125 -17 127 13 0 6 4 2 9 -9 4 -11 19 -30 32 -43z
m263 -62 l-7 -40 46 0 46 0 0 -40 0 -40 -45 0 -45 0 0 -70 c0 -63 2 -70 20
-70 13 0 20 7 20 20 0 16 7 20 30 20 28 0 30 -3 30 -35 0 -54 -27 -75 -100
-75 -53 0 -64 4 -85 26 -21 23 -23 32 -19 92 3 37 7 75 9 85 2 12 -3 17 -19
17 -19 0 -22 4 -18 30 3 23 10 30 26 30 16 0 26 12 39 45 17 39 23 45 49 45
29 0 30 -1 23 -40z m255 18 c0 -19 2 -20 18 -6 37 32 48 34 30 6 l-17 -26 29
8 c23 7 33 5 43 -6 34 -42 48 -53 61 -48 20 8 32 -92 16 -140 -22 -67 -124
-124 -161 -90 -13 11 -27 14 -49 9 -38 -8 -73 12 -96 57 -15 29 -15 33 1 60
11 19 14 38 10 58 -6 25 -2 31 26 46 29 15 31 18 16 29 -26 18 -20 28 12 23
25 -4 31 0 36 19 7 29 25 30 25 1z m709 -13 c26 -13 41 -33 41 -56 0 -5 -18
-9 -40 -9 -22 0 -40 5 -40 10 0 6 -20 10 -45 10 -38 0 -45 -3 -45 -20 0 -17 7
-20 48 -20 104 0 152 -32 152 -100 0 -67 -48 -100 -150 -104 -54 -1 -97 23
-111 62 -8 21 -6 22 41 22 28 0 50 -3 50 -8 0 -4 20 -6 45 -4 35 3 45 8 45 21
0 10 -8 18 -17 18 -104 -1 -125 3 -154 32 -48 49 -37 120 24 146 42 19 121 19
156 0z m-1696 -29 c28 -19 38 -22 46 -12 16 20 89 38 121 31 16 -4 40 -19 54
-35 22 -27 24 -38 25 -144 l2 -116 -56 0 -55 0 0 100 0 100 -40 0 -40 0 0 -95
0 -95 -60 0 -60 0 0 95 0 95 -40 0 -40 0 0 -97 0 -98 -55 -1 -55 -1 0 138 0
139 45 0 c33 0 45 -4 45 -14 0 -11 10 -9 43 9 53 31 75 31 120 1z m-408 -33
c10 -18 13 -19 30 -7 28 21 41 17 20 -6 -18 -19 -17 -20 3 -20 11 0 29 -3 39
-7 15 -6 13 -9 -12 -14 l-30 -6 26 -11 c38 -15 62 -51 47 -70 -9 -10 -9 -18 1
-34 10 -16 9 -25 -7 -51 -15 -26 -24 -31 -46 -29 -31 4 -54 -12 -67 -45 -11
-29 -48 -30 -106 -3 -47 21 -83 70 -83 112 0 15 -4 30 -10 33 -15 9 -12 53 7
92 26 55 81 72 149 46 14 -5 16 -2 10 21 -8 33 13 32 29 -1z m914 -6 c56 -20
68 -48 75 -174 l5 -111 -50 -4 c-34 -2 -53 1 -58 10 -6 10 -14 10 -44 -3 -112
-47 -201 20 -152 114 17 34 53 48 140 57 49 5 62 10 61 22 -3 18 -30 30 -68
31 -22 1 -28 -4 -28 -19 0 -18 -7 -20 -55 -20 -30 0 -55 2 -55 5 0 3 6 20 14
39 23 55 131 82 215 53z m891 -43 c50 -20 78 -59 86 -118 l7 -46 -89 -2 c-49
0 -96 -1 -104 -2 -9 -1 -16 -13 -18 -28 -3 -27 -2 -28 47 -28 41 0 49 3 45 15
-5 12 2 15 32 15 22 0 49 3 61 6 21 6 22 4 12 -24 -18 -53 -52 -76 -123 -80
-49 -3 -71 0 -103 16 -102 53 -96 224 10 273 52 23 85 24 137 3z"/>
<path d="M890 785 c0 -34 1 -35 40 -35 39 0 40 1 40 35 0 34 -1 35 -40 35 -39
0 -40 -1 -40 -35z"/>
<path d="M1754 750 c0 -16 7 -20 33 -20 26 0 33 4 33 20 0 16 -7 20 -33 20
-26 0 -33 -4 -33 -20z"/>
<path d="M1168 658 c-5 -47 3 -58 42 -58 24 0 25 2 22 50 -4 47 -5 50 -32 50
-25 0 -28 -4 -32 -42z m42 -33 c0 -8 -4 -15 -9 -15 -13 0 -22 16 -14 24 11 11
23 6 23 -9z"/>
<path d="M2043 453 c-17 -6 -16 -24 2 -59 20 -38 9 -44 -18 -10 -20 25 -24 26
-36 13 -10 -13 -8 -18 13 -32 31 -20 33 -35 7 -35 -25 0 -37 -18 -22 -33 8 -8
18 -4 36 13 26 25 27 24 29 -25 1 -23 6 -30 21 -30 17 0 19 6 17 33 -4 39 3
40 35 6 26 -28 48 -28 48 1 0 13 -11 22 -32 29 -39 11 -42 23 -8 36 15 6 25
17 25 29 0 33 -22 36 -46 6 -27 -34 -44 -26 -37 19 5 34 -8 48 -34 39z m38
-116 c-1 -12 -15 -9 -19 4 -3 6 1 10 8 8 6 -3 11 -8 11 -12z"/>
<path d="M1453 253 c-16 -3 -23 -11 -23 -29 0 -21 4 -24 40 -24 38 0 40 2 40
30 0 31 -5 33 -57 23z"/>
<path d="M2350 298 c0 -26 3 -28 40 -28 37 0 40 2 40 28 0 26 -3 28 -40 27
-37 0 -40 -2 -40 -27z"/>
<path d="M2808 505 c-9 -10 4 -57 18 -62 8 -3 11 -10 8 -15 -4 -6 2 -6 14 1
26 14 34 38 22 62 -10 17 -49 26 -62 14z m45 -22 c-3 -7 -10 -10 -17 -6 -6 3
-2 -4 9 -18 11 -13 13 -18 4 -11 -9 6 -18 9 -21 6 -3 -2 -7 5 -10 18 -3 18 0
23 18 23 13 0 20 -5 17 -12z"/>
</g>
</svg>
