<?xml version="1.0" standalone="no"?>
<!DOCTYPE svg PUBLIC "-//W3C//DTD SVG 20010904//EN"
 "http://www.w3.org/TR/2001/REC-SVG-20010904/DTD/svg10.dtd">
<svg version="1.0" xmlns="http://www.w3.org/2000/svg"
 width="835.000000pt" height="418.000000pt" viewBox="0 0 835.000000 418.000000"
 preserveAspectRatio="xMidYMid meet">

<g transform="translate(0.000000,418.000000) scale(0.100000,-0.100000)"
fill="#000000" stroke="none">
<path d="M791 4159 c-29 -5 -95 -23 -145 -40 -304 -101 -525 -341 -612 -664
-18 -67 -19 -126 -19 -1370 l0 -1300 23 -78 c33 -115 68 -192 126 -282 150
-228 392 -379 667 -415 60 -8 1053 -10 3399 -8 l3315 3 95 26 c94 26 230 87
293 131 228 157 375 405 407 683 8 71 10 451 8 1310 -4 1202 -4 1211 -25 1290
-51 188 -139 342 -268 464 -119 113 -246 185 -410 233 l-80 23 -3360 1 c-1951
1 -3383 -2 -3414 -7z m1079 -2009 l0 -1160 -275 0 -275 0 0 1160 0 1160 275 0
275 0 0 -1160z m1081 656 c102 -586 99 -569 103 -565 2 2 32 244 67 537 l63
532 388 0 388 0 -2 -1157 -3 -1158 -240 0 -240 0 -5 614 -5 614 -110 -614
-110 -614 -178 -3 c-129 -2 -177 1 -177 9 0 16 -199 1175 -210 1218 -4 21 -8
-230 -9 -596 l-1 -633 -260 0 -260 0 0 1160 0 1160 357 -2 357 -3 87 -499z
m2314 479 c159 -39 257 -106 308 -210 47 -94 48 -121 45 -936 l-3 -765 -38
-76 c-44 -89 -95 -140 -191 -187 -150 -74 -300 -91 -798 -91 l-348 0 0 1146 0
1146 478 -5 c410 -4 487 -7 547 -22z m1095 -230 c0 -140 2 -255 4 -255 1 0 34
20 72 45 73 48 146 79 227 97 136 29 300 -35 378 -148 60 -87 60 -91 57 -871
l-3 -708 -22 -41 c-12 -23 -41 -58 -64 -78 -63 -54 -124 -70 -259 -70 -110 0
-122 2 -255 46 -209 69 -195 70 -218 -23 l-14 -54 -242 -3 -241 -2 0 1160 0
1160 290 0 290 0 0 -255z"/>
<path d="M4790 2180 l0 -770 28 0 c73 0 147 20 170 45 l22 26 0 705 c0 683 -1
705 -19 723 -25 25 -82 41 -148 41 l-53 0 0 -770z"/>
<path d="M6414 2656 c-18 -14 -19 -34 -22 -618 -2 -332 0 -621 3 -644 8 -55
38 -88 74 -79 53 12 51 -7 51 672 l0 634 -25 24 c-27 28 -52 31 -81 11z"/>
</g>
</svg>
